PathFileType	4	(X/Y/Z)	Test12_result.trc
DataRate	CameraRate	NumFrames	NumMarkers	Units	OrigDataRate	OrigDataStartFrame	OrigNumFrames
100	100	5	56	mm	100	62	493
Frame#	Time	PELO			PELA			PELL			PELP			LFEO			LFEA			LFEL			LFEP			LTIO			LTIA			LTIL			LTIP			LFOO			LFOA			LFOL			LFOP			LTOO			LTOA			LTOL			LTOP			RFEO			RFEA			RFEL			RFEP			RTIO			RTIA			RTIL			RTIP			RFOO			RFOA			RFOL			RFOP			RTOO			RTOA			RTOL			RTOP			LASI			RASI			LPSI			RPSI			LTHI			LKNE			LTIB			LANK			LHEE			LTOE			LFMH			LVMH			RTHI			RKNE			RTIB			RANK			RHEE			RTOE			RFMH			RVMH		
		X1	Y1	Z1	X2	Y2	Z2	X3	Y3	Z3	X4	Y4	Z4	X5	Y5	Z5	X6	Y6	Z6	X7	Y7	Z7	X8	Y8	Z8	X9	Y9	Z9	X10	Y10	Z10	X11	Y11	Z11	X12	Y12	Z12	X13	Y13	Z13	X14	Y14	Z14	X15	Y15	Z15	X16	Y16	Z16	X17	Y17	Z17	X18	Y18	Z18	X19	Y19	Z19	X20	Y20	Z20	X21	Y21	Z21	X22	Y22	Z22	X23	Y23	Z23	X24	Y24	Z24	X25	Y25	Z25	X26	Y26	Z26	X27	Y27	Z27	X28	Y28	Z28	X29	Y29	Z29	X30	Y30	Z30	X31	Y31	Z31	X32	Y32	Z32	X33	Y33	Z33	X34	Y34	Z34	X35	Y35	Z35	X36	Y36	Z36	X37	Y37	Z37	X38	Y38	Z38	X39	Y39	Z39	X40	Y40	Z40	X41	Y41	Z41	X42	Y42	Z42	X43	Y43	Z43	X44	Y44	Z44	X45	Y45	Z45	X46	Y46	Z46	X47	Y47	Z47	X48	Y48	Z48	X49	Y49	Z49	X50	Y50	Z50	X51	Y51	Z51	X52	Y52	Z52	X53	Y53	Z53	X54	Y54	Z54	X55	Y55	Z55	X56	Y56	Z56
	
124	1.230000	-2918.501449	883.950823	-116.428755	-2757.016995	873.266050	-126.115158	-2928.337014	881.999401	-278.245676	-2907.953588	1045.713925	-119.020657	-2899.946295	472.379591	-219.406525	-2495.127430	501.662085	-286.522551	-2968.414254	490.055809	-624.674614	-2925.908898	882.343264	-197.137247	-3207.740340	237.952817	-187.937074	-2986.275602	-55.153994	-205.355231	-3242.023290	233.811885	-554.084739	-2916.121705	460.059473	-217.752576	-3196.766314	119.939641	-199.745175	-3034.257360	151.886852	-215.480612	-3212.775854	119.770559	-365.154523	-3228.585680	283.197567	-196.835521	-3186.159804	65.520339	-200.715070	-3131.990122	76.169495	-205.960148	-3191.496251	65.463939	-255.851528	-3196.766342	119.939634	-199.745231	-2834.348020	479.623979	-44.019260	-2433.129407	554.152628	20.860355	-2772.107249	499.728778	-452.017395	-2911.093811	885.558247	-35.720258	-2876.643925	79.388745	-61.055079	-2501.170446	37.143546	-0.762622	-2814.952920	88.936901	-438.550093	-2836.468867	459.553740	-44.873475	-2763.120120	63.489738	-41.178159	-2757.343615	225.556656	-30.994206	-2748.622336	73.124918	-202.732234	-2924.858208	70.141564	-55.295918	-2709.207005	61.272491	-36.472251	-2707.281551	115.294800	-33.077622	-2704.374459	64.484207	-90.323601	-2763.119809	63.489690	-41.178161	-2879.610512	967.872582	-252.534263	-2863.537087	971.061475	11.909635	-3070.144855	979.951809	-157.900538	-3065.155813	984.983483	-55.829282	-2917.707033	626.855816	-290.188452	-2909.598800	474.871614	-276.543309	-3094.048135	347.865375	-258.705175	-3221.452500	239.290150	-228.670072	-3248.381370	262.295167	-178.663411	-3218.141766	97.346059	-184.904703	-3205.232596	62.552041	-163.554085	-3223.837709	85.628258	-229.763056	-2889.982025	686.569680	55.890219	-2843.008874	476.826269	12.755597	-2872.608595	295.090323	24.000360	-2885.627361	68.615865	-20.407496	-2929.849242	41.455970	-67.496963	-2757.729106	36.803575	-56.028373	-2710.276510	34.814362	-88.962741	-2742.787858	28.887558	-11.007610
125	1.240000	-2906.566876	885.785864	-115.572068	-2745.104684	875.285734	-125.816163	-2916.936394	884.175684	-277.359400	-2896.190380	1047.564763	-117.847270	-2876.393202	476.270876	-219.620598	-2473.207126	517.397675	-284.836784	-2943.565624	493.203471	-624.226650	-2914.239804	884.346011	-196.258910	-3182.779963	242.699111	-185.080773	-2962.069963	-49.295958	-201.880718	-3218.993914	236.302679	-549.631631	-2892.551860	463.952116	-217.798817	-3167.655840	125.593279	-199.493952	-3006.703013	163.668613	-215.248871	-3184.575604	128.408178	-364.793638	-3205.260563	287.285130	-192.903650	-3155.120991	71.696001	-201.690721	-3101.470019	84.387863	-206.942286	-3160.760828	72.634269	-256.790628	-3167.655975	125.593281	-199.493996	-2829.645850	479.205216	-43.349812	-2426.942779	546.129149	25.193959	-2763.451052	498.903306	-451.488807	-2898.893399	887.225602	-34.885276	-2876.048110	79.353815	-60.942732	-2501.561846	33.080461	3.037557	-2810.534678	88.338657	-437.905935	-2831.972271	459.158958	-44.231732	-2762.559995	63.334582	-40.958641	-2756.678052	225.377601	-30.461123	-2747.859463	73.264592	-202.476578	-2924.275937	70.130834	-55.259422	-2708.654226	61.069157	-36.191735	-2706.693646	115.083494	-32.692575	-2703.754084	64.379157	-90.031048	-2762.559657	63.334532	-40.958656	-2868.217001	970.041293	-251.711636	-2851.259606	972.674296	12.861483	-3058.365825	981.451749	-156.985502	-3053.076033	986.782961	-54.934713	-2898.326278	629.836761	-290.414219	-2885.883851	478.663267	-276.788760	-3069.304919	352.492481	-257.363678	-3196.723168	243.777469	-225.742839	-3224.150876	265.438805	-175.548837	-3188.128958	101.603339	-185.044572	-3176.821326	65.684956	-164.157682	-3196.267566	91.047335	-229.708127	-2882.199516	686.989487	56.458609	-2838.840742	476.468939	13.344099	-2870.559599	294.983722	24.264767	-2885.544931	68.667388	-20.388841	-2929.861174	41.598440	-67.624606	-2757.669639	36.852014	-55.873850	-2710.277778	34.802356	-88.881702	-2742.839288	28.748636	-10.915415
126	1.250000	-2894.714913	887.572146	-114.750896	-2733.275409	877.186340	-125.460135	-2905.523100	886.367699	-276.513057	-2884.431959	1049.361936	-116.642670	-2853.428642	480.424760	-219.832620	-2452.106976	532.836223	-282.842384	-2918.993548	496.779121	-623.825957	-2902.606029	886.333290	-195.420010	-3157.459055	245.751083	-182.170390	-2935.668924	-44.287738	-198.991207	-3195.987989	237.361469	-545.535688	-2869.500759	468.018907	-217.841545	-3135.682866	130.119583	-199.201011	-2977.445926	177.813364	-215.250249	-3154.076206	135.406487	-364.284874	-3182.542118	289.079996	-188.877703	-3120.063086	77.132788	-202.642118	-3067.317434	93.030762	-207.991829	-3126.194146	78.895074	-257.670071	-3135.682878	130.119588	-199.201036	-2825.397322	478.743560	-42.719038	-2421.233434	537.770987	29.184186	-2755.532324	497.807607	-451.080059	-2886.822901	888.810942	-34.081844	-2875.468055	79.325653	-60.819113	-2501.949652	29.462936	6.243561	-2806.753507	87.773074	-437.257810	-2827.907590	458.720637	-43.626318	-2761.996342	63.239295	-40.795773	-2756.069090	225.263839	-30.042453	-2747.201072	73.416171	-202.289638	-2923.701888	70.109106	-55.177507	-2708.094216	60.949330	-36.001888	-2706.118527	114.957508	-32.417424	-2703.162441	64.341644	-89.833186	-2761.996135	63.239281	-40.795819	-2856.783646	972.194094	-250.825926	-2839.102630	974.164330	13.799196	-3046.562839	983.023749	-156.218531	-3041.059157	988.543453	-54.191073	-2879.280306	633.174957	-290.691754	-2862.712424	482.740465	-277.037932	-3044.697587	356.241417	-255.915462	-3171.681557	246.545786	-222.742139	-3200.147604	266.158832	-172.298455	-3154.614913	104.594649	-185.128700	-3144.718805	68.022601	-164.834971	-3165.332594	94.933780	-229.748564	-2874.638695	687.381525	56.985280	-2835.083592	476.100412	13.897512	-2868.629211	294.900235	24.517629	-2885.401078	68.720937	-20.348230	-2929.851600	41.777609	-67.754635	-2757.655865	36.976137	-55.772838	-2710.241820	34.776754	-88.782555	-2742.846529	28.617863	-10.823535
127	1.260000	-2882.933888	889.281452	-113.957315	-2721.515874	878.939562	-125.027743	-2894.074781	888.529305	-275.699668	-2872.667856	1051.076791	-115.416910	-2831.096768	484.713523	-220.038235	-2431.778406	547.788697	-280.506908	-2894.718058	500.691670	-623.507099	-2890.990762	888.267951	-194.613177	-3131.700387	246.974980	-179.319670	-2907.020914	-40.146201	-196.980966	-3172.926748	237.011355	-541.846925	-2847.008475	472.129390	-217.882903	-3102.527519	133.299987	-198.685451	-2947.882923	191.630583	-215.347503	-3122.923089	140.297608	-363.471090	-3159.658032	288.686778	-184.989937	-3083.483883	81.504398	-203.250631	-3031.935703	100.947913	-208.804652	-3090.282403	83.836947	-258.179164	-3102.527367	133.299980	-198.685451	-2821.551206	478.261089	-42.132696	-2415.960809	529.148365	32.704323	-2748.431496	496.481627	-450.808496	-2874.875959	890.295060	-33.301479	-2874.901069	79.316533	-60.709142	-2502.317531	26.251001	8.896389	-2803.536301	87.280543	-436.638084	-2824.226115	458.260615	-43.063926	-2761.434750	63.227615	-40.656592	-2755.541300	225.240785	-29.715158	-2746.573579	73.592221	-202.132438	-2923.135394	70.084845	-55.098368	-2707.534562	60.941844	-35.842692	-2705.570100	114.946235	-32.195493	-2702.580775	64.396756	-89.667987	-2761.434792	63.227655	-40.656661	-2845.289175	974.287629	-249.868054	-2827.064475	975.517974	14.715772	-3034.728537	984.635825	-155.604284	-3029.096896	990.242975	-53.601070	-2860.597913	636.786478	-291.017905	-2840.123910	486.980615	-277.286574	-3020.248610	358.982644	-254.398686	-3146.249329	247.477832	-219.780148	-3176.073617	264.551832	-169.023473	-3119.586413	106.228785	-184.915569	-3109.612078	69.440236	-165.516105	-3131.766397	97.205029	-229.763277	-2867.243771	687.755649	57.471876	-2831.668444	475.739958	14.414078	-2866.802001	294.851397	24.747625	-2885.202084	68.785813	-20.311026	-2929.817074	41.986508	-67.902464	-2757.676831	37.195289	-55.687609	-2710.165712	34.737557	-88.678579	-2742.820754	28.505765	-10.733733
128	1.270000	-2871.216596	890.883737	-113.190020	-2709.817496	880.517304	-124.510136	-2882.577163	890.613853	-274.918637	-2860.894484	1052.679028	-114.185159	-2809.417883	489.007704	-220.232133	-2412.154120	562.093000	-277.820793	-2870.759627	504.832556	-623.298971	-2879.383296	890.111631	-193.837505	-3105.411132	246.318269	-176.648633	-2876.106824	-36.804061	-195.841255	-3149.537219	235.113804	-538.628720	-2825.092417	476.155937	-217.924243	-3069.188062	134.978945	-197.975632	-2918.736747	203.423106	-215.445253	-3091.881642	142.933094	-362.415839	-3136.073676	286.236951	-181.412383	-3046.892799	84.559605	-203.496716	-2996.742379	107.374249	-209.319928	-3054.457335	87.211022	-258.310104	-3069.187922	134.978915	-197.975605	-2818.052593	477.774192	-41.593052	-2411.082811	520.329680	35.671697	-2742.183706	494.967391	-450.682856	-2863.048908	891.656142	-32.542518	-2874.342612	79.333566	-60.631562	-2502.673975	23.395852	11.155530	-2800.696958	86.869787	-436.050134	-2820.875484	457.795188	-42.547631	-2760.880821	63.300634	-40.507901	-2755.096922	225.309253	-29.441354	-2745.907983	73.795095	-201.965021	-2922.575068	70.067486	-55.063008	-2706.982947	61.044990	-35.656220	-2705.054960	115.047864	-31.967322	-2701.991945	64.543181	-89.475265	-2760.881011	63.300684	-40.507961	-2833.721555	976.278191	-248.839664	-2815.145986	976.719507	15.601364	-3022.862364	986.249776	-155.142521	-3017.183589	991.857538	-53.162956	-2842.297576	640.578286	-291.384905	-2818.137519	491.257188	-277.528799	-2995.933797	360.593945	-252.883418	-3120.311660	246.511201	-216.983662	-3151.592714	260.778553	-165.851813	-3084.261174	106.391806	-184.438221	-3072.273274	69.906096	-166.136293	-3096.343498	97.912158	-229.660200	-2859.967912	688.114421	57.920488	-2828.528659	475.400095	14.894761	-2865.083932	294.844032	24.944425	-2884.964434	68.869134	-20.299443	-2929.759163	42.217597	-68.081639	-2757.678374	37.490676	-55.581150	-2710.054336	34.687858	-88.579052	-2742.776420	28.416982	-10.652125
